# xmcd
#
# Track frame offsets:
#	150
#	7301
#	25770
#	41338
#	66262
#	91107
#	107592
#	122310
#	136071
#	148075
#	164155
#	180224
#	194914
#	207374
#	251783
#
# Disc length: 3696 seconds
#
# Revision: 7
# Processed by: cddbd v1.5.2PL0 Copyright (c) Steve Scherf et al.
# Submitted via: audiograbber 1.83.01
#
DISCID=d30e6e0f
DTITLE=Jessier Quirino - Jessier Quirino - Bandeira Nordestina
DYEAR=2009
DGENRE=Country
TTITLE0=Bandeira Nordestina
TTITLE1=Umbuzeiro Sagrado
TTITLE2=O Dizido Das Horas Do SertÃo
TTITLE3=Endereço de Matuto
TTITLE4=A Cumeeira De Arueira LÁ Da Casa Grande
TTITLE5=Maria Pano De Chão
TTITLE6=Linda Não, Aquelas Tuia
TTITLE7=Uma Fachada De Cinema Com Nome Dela Apregado
TTITLE8=Fé Feminina
TTITLE9=Miss Feiúra Nenhuma
TTITLE10=Baixe As Arma Comedor
TTITLE11=E O Povo Gritando Amém
TTITLE12=Politicagem-Tire Seu PolÍtico Do Caminho-De Domingo Agora A Oito
TTITLE13=Outra De Mané Cabelim
TTITLE14=Cumpade Lelé Garrinha-Fez Um Golzão de Lascar-Casamento Esportivo
EXTD=
EXTT0=
EXTT1=
EXTT2=
EXTT3=
EXTT4=
EXTT5=
EXTT6=
EXTT7=
EXTT8=
EXTT9=
EXTT10=
EXTT11=
EXTT12=
EXTT13=
EXTT14=
PLAYORDER=
